<svg width="24" height="24" viewBox="0 0 24 24" fill="none" xmlns="http://www.w3.org/2000/svg">
  <rect width="24" height="24" rx="4" fill="#07C160"/>
  <path d="M7.5 8.5C7.5 7.67157 8.17157 7 9 7H15C15.8284 7 16.5 7.67157 16.5 8.5V12.5C16.5 13.3284 15.8284 14 15 14H13L11 16L9 14H9C8.17157 14 7.5 13.3284 7.5 12.5V8.5Z" fill="white"/>
  <circle cx="10" cy="10" r="0.5" fill="#07C160"/>
  <circle cx="12" cy="10" r="0.5" fill="#07C160"/>
  <circle cx="14" cy="10" r="0.5" fill="#07C160"/>
  <path d="M8 15.5C8 14.6716 8.67157 14 9.5 14H15.5C16.3284 14 17 14.6716 17 15.5V18.5C17 19.3284 16.3284 20 15.5 20H13.5L11.5 22L9.5 20H9.5C8.67157 20 8 19.3284 8 18.5V15.5Z" fill="white" opacity="0.8"/>
  <circle cx="11" cy="17" r="0.4" fill="#07C160"/>
  <circle cx="13" cy="17" r="0.4" fill="#07C160"/>
  <circle cx="15" cy="17" r="0.4" fill="#07C160"/>
</svg>