<?xml version="1.0" standalone="no"?><!DOCTYPE svg PUBLIC "-//W3C//DTD SVG 1.1//EN" "http://www.w3.org/Graphics/SVG/1.1/DTD/svg11.dtd"><svg t="1751972276072" class="icon" viewBox="0 0 1024 1024" version="1.1" xmlns="http://www.w3.org/2000/svg" p-id="8608" width="16" height="16" xmlns:xlink="http://www.w3.org/1999/xlink"><path d="M997.815779 511.700399c0 41.396562-5.270514 82.639615-15.760372 122.654586l-48.611538-16.169732Q946.645739 566.196492 946.645739 511.700399q0-82.946635-30.548514-160.111055-33.158186-83.765355-96.864886-147.420885-63.65553-63.7067-147.420885-96.864885Q594.595864 76.75506 511.700399 76.75506t-160.111055 30.548514Q267.823989 140.46176 204.168459 204.168459 140.46176 267.823989 107.303574 351.538174 76.75506 428.804935 76.75506 511.700399t30.548514 160.111055q33.158186 83.765355 96.864885 147.420885 63.65553 63.7067 147.420885 96.864886Q428.804935 946.645739 511.700399 946.645739q54.496093 0 106.433683-13.20187l16.272073 48.611538A486.115379 486.115379 0 1 1 997.815779 511.700399z m-204.68016 0c0 19.393445-2.046802 38.73572-5.986895 57.668635l-48.611538-16.169732q3.428393-20.058656 3.428393-41.498903 0-95.380954-67.442112-162.823067Q607.081354 281.43522 511.700399 281.43522q-95.380954 0-162.823067 67.442112Q281.43522 416.319445 281.43522 511.700399q0 95.380954 67.442112 162.823068Q416.319445 741.965579 511.700399 741.965579q21.491417 0 41.498903-3.428393l16.220902 48.611538A281.43522 281.43522 0 1 1 793.135619 511.700399z" fill="#707070" p-id="8609" data-spm-anchor-id="a313x.search_index.0.i14.3e513a81DzCFVg" class="selected"></path><path d="M564.559051 583.491965a30.702024 30.702024 0 0 0 0 20.212166l139.080168 399.126312a30.702024 30.702024 0 0 0 57.361615 1.535101l71.024015-172.340695 172.340695-71.024015a30.702024 30.702024 0 0 0-1.535101-57.310445l-399.126312-139.080168a30.702024 30.702024 0 0 0-39.14508 18.881744z" fill="#3377FF" p-id="8610"></path></svg>