<?xml version="1.0" standalone="no"?><!DOCTYPE svg PUBLIC "-//W3C//DTD SVG 1.1//EN" "http://www.w3.org/Graphics/SVG/1.1/DTD/svg11.dtd"><svg t="1753666420030" class="icon" viewBox="0 0 1024 1024" version="1.1" xmlns="http://www.w3.org/2000/svg" p-id="8474" xmlns:xlink="http://www.w3.org/1999/xlink" width="32" height="32"><path d="M512 494.848A81.2032 81.2032 0 0 0 468.7872 645.12l14.3872 9.0624v64a28.672 28.672 0 0 0 57.2928 0v-64l14.4384-9.0624A81.2032 81.2032 0 0 0 512 494.848z" fill="#505587" p-id="8475"></path><path d="M771.328 337.92h-6.0416a253.4912 253.4912 0 0 0-506.88 0h-6.0928a130.8672 130.8672 0 0 0-130.7136 130.9184v324.1472a130.8672 130.8672 0 0 0 130.7136 130.7136h519.0144a130.8672 130.8672 0 0 0 130.7648-130.7136V468.8384A130.9184 130.9184 0 0 0 771.328 337.92z m-169.4208 348.6208v31.2832a90.112 90.112 0 0 1-180.1728 0v-31.2832a142.6944 142.6944 0 1 1 180.1728 0zM319.7952 337.92a192.0512 192.0512 0 0 1 384 0z" fill="#505587" p-id="8476"></path></svg>