<?xml version="1.0" standalone="no"?><!DOCTYPE svg PUBLIC "-//W3C//DTD SVG 1.1//EN" "http://www.w3.org/Graphics/SVG/1.1/DTD/svg11.dtd"><svg t="1753666670485" class="icon" viewBox="0 0 1024 1024" version="1.1" xmlns="http://www.w3.org/2000/svg" p-id="23813" xmlns:xlink="http://www.w3.org/1999/xlink" width="32" height="32"><path d="M309.333333 430.933333H836.266667a40.533333 40.533333 0 0 1 40.533333 40.533334v405.333333a40.533333 40.533333 0 0 1-40.533333 40.533333H187.733333a40.533333 40.533333 0 0 1-40.533333-40.533333v-405.333333a40.533333 40.533333 0 0 1 40.533333-40.533334h40.533334v-40.533333a283.733333 283.733333 0 0 1 537.6-126.933333l-72.533334 36.266666a202.666667 202.666667 0 0 0-384 90.666667v40.533333z m121.6 202.666667v81.066667h162.133334v-81.066667h-162.133334z" p-id="23814" fill="#13227a"></path></svg>