<?xml version="1.0" standalone="no"?><!DOCTYPE svg PUBLIC "-//W3C//DTD SVG 1.1//EN" "http://www.w3.org/Graphics/SVG/1.1/DTD/svg11.dtd"><svg t="1753667841739" class="icon" viewBox="0 0 2048 1024" version="1.1" xmlns="http://www.w3.org/2000/svg" p-id="57673" xmlns:xlink="http://www.w3.org/1999/xlink" width="64" height="32"><path d="M851.1488 593.03936c-9.64608-9.6256-21.7088-16.87552-31.35488-24.10496 0-14.47936 0-26.54208-2.41664-41.00096-2.41664-14.47936-4.83328-26.5216-9.64608-41.00096h-125.41952c2.41664 19.29216 4.83328 36.16768 4.83328 55.45984-12.06272 2.41664-21.7088 4.83328-33.77152 7.24992 0-21.7088-2.39616-41.00096-4.8128-62.70976H404.97152a640.6144 640.6144 0 0 0 0 166.4h125.41952a139.4688 139.4688 0 0 0-12.0832 33.77152h-106.0864c2.39616 9.64608 4.8128 19.29216 7.22944 31.3344 2.39616 12.0832 7.22944 24.12544 12.04224 38.6048 4.83328 12.06272 9.64608 26.5216 16.896 38.58432 7.22944 12.06272 14.45888 24.12544 21.7088 33.77152 7.22944 9.6256 16.87552 19.29216 26.5216 24.10496 9.64608 7.24992 19.29216 9.64608 31.3344 9.64608 7.24992 0 16.896-2.39616 21.7088-4.8128 9.66656 12.06272 19.31264 24.12544 33.792 33.77152-19.31264 2.39616-36.18816 4.8128-55.5008 4.8128-28.91776 0-57.856-4.8128-86.81472-12.06272-26.5216-7.22944-53.0432-19.29216-77.16864-33.75104a336.384 336.384 0 0 1-65.1264-50.64704 336.384 336.384 0 0 1-50.62656-65.1264A327.20896 327.20896 0 0 1 204.8 571.35104c0-57.89696 14.47936-113.3568 43.4176-164.00384a336.384 336.384 0 0 1 50.64704-65.1264 336.384 336.384 0 0 1 65.1264-50.64704c24.10496-14.45888 50.62656-24.10496 77.14816-33.75104 28.95872-7.22944 57.89696-12.06272 86.8352-12.06272 28.93824 0 57.87648 4.83328 86.8352 12.06272 26.50112 7.22944 53.0432 19.29216 77.14816 33.75104a336.384 336.384 0 0 1 65.1264 50.64704 336.384 336.384 0 0 1 50.64704 65.1264 327.20896 327.20896 0 0 1 43.4176 164.00384v21.7088z m-55.48032-139.8784c-7.22944-19.29216-19.29216-38.58432-31.3344-55.45984-12.0832-16.87552-26.54208-33.77152-43.4176-48.2304a282.05056 282.05056 0 0 0-110.94016-62.70976c9.6256 12.06272 16.87552 24.12544 24.10496 36.16768 7.22944 14.47936 14.47936 26.54208 19.29216 41.00096l14.47936 43.4176c4.8128 14.45888 7.22944 28.93824 9.6256 43.4176l118.19008 2.39616zM233.73824 568.9344c0 14.45888 0 28.93824 2.41664 41.00096 2.41664 14.45888 4.8128 26.5216 9.6256 41.00096h125.41952a640.6144 640.6144 0 0 1 0-166.42048h-125.39904c-4.83328 14.47936-7.22944 26.54208-9.64608 41.00096 0 16.87552-2.41664 31.35488-2.41664 43.4176z m291.81952-291.84c-12.06272 0-21.7088 2.43712-31.3344 9.66656-9.66656 7.22944-19.31264 14.45888-26.54208 24.12544-7.24992 9.6256-16.896 21.7088-21.7088 33.75104-7.22944 12.06272-12.06272 26.54208-16.87552 38.58432-9.64608 21.7088-14.47936 45.83424-19.29216 69.9392h233.92256c-2.41664-9.6256-4.8128-21.7088-7.22944-31.3344-7.22944-26.54208-16.87552-53.06368-28.93824-77.18912-7.22944-12.06272-14.47936-24.10496-21.7088-33.75104-7.22944-9.66656-16.87552-16.896-26.5216-24.12544-9.64608-4.83328-21.7088-9.64608-33.77152-9.64608z m-82.00192 12.0832c-21.7088 4.8128-41.00096 14.45888-60.29312 24.10496-19.29216 9.64608-36.16768 21.7088-53.0432 36.18816-16.896 14.45888-28.95872 28.93824-43.4176 48.2304-12.06272 16.87552-24.12544 36.16768-31.35488 55.45984h118.1696c2.41664-14.45888 4.83328-28.93824 9.64608-43.4176l14.47936-43.39712c4.8128-14.47936 12.06272-28.93824 19.29216-41.00096 9.6256-12.06272 16.87552-24.12544 26.5216-36.16768z m-185.69216 397.9264c24.10496 57.87648 69.9392 108.544 125.39904 139.8784 19.29216 9.64608 38.58432 19.29216 57.87648 24.12544-9.6256-12.0832-16.87552-24.12544-24.10496-36.18816-7.22944-14.45888-14.47936-26.5216-19.29216-41.00096l-14.47936-43.4176c-4.8128-14.45888-7.22944-28.91776-9.6256-43.39712H257.8432z" fill="#108EE9" p-id="57674"></path><path d="M585.85088 819.75296l-48.2304-209.8176h41.00096l28.93824 144.6912 36.16768-144.6912h48.2304l36.18816 147.10784 31.3344-147.10784h41.02144L752.2304 819.75296h-43.4176l-38.56384-156.7744-38.6048 156.7744h-45.81376z m224.29696-67.52256l38.58432-4.83328c2.41664 14.47936 7.22944 24.12544 14.45888 31.3344 7.24992 7.24992 16.896 9.66656 28.93824 9.66656 12.0832 0 21.7088-2.41664 28.95872-9.64608 7.22944-4.83328 9.6256-12.06272 9.6256-19.29216a18.432 18.432 0 0 0-4.8128-12.06272c-2.41664-2.41664-7.22944-7.22944-14.45888-9.64608-4.83328-2.41664-14.47936-4.83328-31.35488-9.64608-21.7088-4.83328-36.18816-12.06272-45.83424-21.7088-12.06272-12.06272-19.29216-26.5216-19.29216-43.4176 0-9.6256 2.41664-21.7088 9.64608-28.93824 4.83328-9.6256 14.47936-16.87552 24.12544-21.7088 9.6256-4.8128 24.10496-7.22944 38.58432-7.22944 24.12544 0 43.4176 4.83328 55.45984 16.87552 12.0832 12.0832 19.31264 26.54208 19.31264 45.83424l-41.00096 2.41664c-2.41664-9.64608-4.83328-19.29216-12.0832-24.12544-4.8128-4.8128-14.45888-7.22944-26.5216-7.22944-12.04224 0-21.7088 2.41664-26.5216 7.22944a13.27104 13.27104 0 0 0-7.22944 12.06272c0 4.8128 2.41664 9.6256 7.22944 12.06272 4.83328 4.8128 16.87552 9.6256 36.16768 14.45888 19.31264 4.83328 33.792 9.64608 43.4176 14.47936a47.3088 47.3088 0 0 1 21.7088 21.7088c4.8128 9.6256 7.22944 19.29216 7.22944 33.75104 0 12.0832-2.41664 24.12544-9.6256 33.77152-7.24992 9.6256-14.47936 19.29216-26.54208 24.10496-12.06272 4.83328-26.54208 7.24992-43.4176 7.24992-24.10496 0-45.81376-7.24992-57.87648-19.29216-4.83328-7.24992-12.06272-26.54208-16.87552-48.25088z" fill="#108EE9" p-id="57675"></path></svg>