<?xml version="1.0" standalone="no"?><!DOCTYPE svg PUBLIC "-//W3C//DTD SVG 1.1//EN" "http://www.w3.org/Graphics/SVG/1.1/DTD/svg11.dtd"><svg t="1752391214942" class="icon" viewBox="0 0 1024 1024" version="1.1" xmlns="http://www.w3.org/2000/svg" p-id="7753" width="16" height="16" xmlns:xlink="http://www.w3.org/1999/xlink"><path d="M368.2816 64h-4.352c-16.5376-0.0512-33.792-0.1024-48.8448 5.376a89.6 89.6 0 0 0-53.76 53.7088c-1.6896 4.7104-2.8672 9.728-3.6352 14.7968h-61.952c-13.1584 0-25.2416 0-35.328 0.8192a90.8288 90.8288 0 0 0-34.6624 8.96 89.6 89.6 0 0 0-39.168 39.1168c-6.0416 11.776-8.0384 23.7568-8.96 34.6624-0.8192 10.1376-0.8192 22.2208-0.8192 35.4304v584.192c0 13.1584 0 25.2416 0.8192 35.328 0.9216 10.9568 2.9184 22.8864 8.96 34.6624 8.6016 16.896 22.272 30.6176 39.168 39.168 11.776 6.0416 23.7056 8.0384 34.6112 8.96 10.1376 0.8192 22.2208 0.8192 35.4304 0.8192H512a38.4 38.4 0 0 0 0-76.8H197.12c-14.9504 0-23.9104 0-30.5152-0.5632a32.6656 32.6656 0 0 1-6.144-0.9216 12.8 12.8 0 0 1-5.376-5.376 32 32 0 0 1-0.9216-6.144 426.8032 426.8032 0 0 1-0.512-30.5152L153.6 258.2016c0-15.0016 0-23.9104 0.5632-30.5152a32.1536 32.1536 0 0 1 0.9216-6.144 12.8 12.8 0 0 1 5.3248-5.376 32.1024 32.1024 0 0 1 6.1952-0.9216c6.656-0.512 15.5648-0.5632 30.5152-0.5632h60.5696c0.768 5.12 1.9456 10.0352 3.6864 14.848A89.6 89.6 0 0 0 315.0848 283.136c15.0528 5.4784 32.3072 5.4272 48.8448 5.376h270.5408c16.5376 0 33.792 0.1024 48.896-5.376a89.6 89.6 0 0 0 53.6576-53.7088c1.7408-4.7616 2.9184-9.728 3.6864-14.848h60.5696c14.9504 0 23.8592 0.0512 30.5152 0.6144a32.1024 32.1024 0 0 1 6.144 0.9216 12.8 12.8 0 0 1 5.376 5.3248 31.6928 31.6928 0 0 1 0.9216 6.1952c0.512 6.656 0.512 15.5136 0.512 30.5152V537.6a38.4 38.4 0 1 0 76.8 0V256.8704c0-13.2096 0-25.2928-0.768-35.4304a90.7776 90.7776 0 0 0-8.96-34.6624 89.6 89.6 0 0 0-39.168-39.1168 90.8288 90.8288 0 0 0-34.6112-8.96 463.36 463.36 0 0 0-35.4304-0.8192h-61.9008a79.616 79.616 0 0 0-3.6864-14.848 89.6 89.6 0 0 0-53.6576-53.6576c-15.104-5.4784-32.3584-5.4272-48.896-5.376H368.2816zM160.256 881.664h0.0512a0.512 0.512 0 0 1-0.0512 0z m-5.1712-5.12v-0.1024 0.0512z m0-655.1552z m177.9712-22.6304a423.2704 423.2704 0 0 1-0.3072-22.528c0-10.9568 0-17.5616 0.3072-22.4256a33.1776 33.1776 0 0 1 0.512-4.7104 12.8 12.8 0 0 1 7.4752-7.4752 33.1776 33.1776 0 0 1 4.7104-0.512c4.864-0.3072 11.4688-0.3072 22.4768-0.3072h261.8368c11.008 0 17.6128 0 22.528 0.3072 3.072 0.2048 4.352 0.4608 4.6592 0.512a12.8 12.8 0 0 1 7.4752 7.4752 33.536 33.536 0 0 1 0.512 4.7104c0.3072 4.864 0.3072 11.4688 0.3072 22.4768s0 17.5616-0.3072 22.528a33.5872 33.5872 0 0 1-0.512 4.608 12.8 12.8 0 0 1-7.4752 7.5264 33.0752 33.0752 0 0 1-4.7104 0.512 423.0656 423.0656 0 0 1-22.4768 0.3072H368.2816c-11.008 0-17.6128 0-22.528-0.3072a33.0752 33.0752 0 0 1-4.6592-0.512 12.8 12.8 0 0 1-7.4752-7.4752 33.1776 33.1776 0 0 1-0.512-4.7104z m504.9856 17.408h-0.1024a1.024 1.024 0 0 1 0.1024 0z m5.1712 5.2224v0.0512-0.0512z" p-id="7754" fill="#1296db"></path><path d="M323.072 407.04a38.4 38.4 0 0 0 0 76.8h335.872a38.4 38.4 0 1 0 0-76.8H323.072zM284.672 628.7872a38.4 38.4 0 0 1 38.4-38.4h180.8896a38.4 38.4 0 0 1 0 76.8H323.072a38.4 38.4 0 0 1-38.4-38.4zM753.408 669.3376a112.0768 112.0768 0 0 1 160.0512 0 115.9168 115.9168 0 0 1 0 162.304l-103.0144 104.448c-18.2784 18.5344-41.984 30.5664-67.584 34.304l-96.9216 14.0288a38.4 38.4 0 0 1-43.1616-43.776l13.824-98.304c3.6864-25.9584 15.5136-49.9712 33.792-68.5056l103.0144-104.448z m106.1376 107.6224a37.7856 37.7856 0 0 0 0-52.9408 36.5568 36.5568 0 0 0-52.224 0l-102.9632 104.448a44.032 44.032 0 0 0-12.288 24.832l-6.6048 47.2576 46.592-6.7584a43.008 43.008 0 0 0 24.4736-12.3904l103.0144-104.448z" p-id="7755" fill="#1296db"></path></svg>