<?xml version="1.0" standalone="no"?><!DOCTYPE svg PUBLIC "-//W3C//DTD SVG 1.1//EN" "http://www.w3.org/Graphics/SVG/1.1/DTD/svg11.dtd"><svg t="1753666237360" class="icon" viewBox="0 0 1024 1024" version="1.1" xmlns="http://www.w3.org/2000/svg" p-id="5232" width="32" height="32" xmlns:xlink="http://www.w3.org/1999/xlink"><path d="M332.8 697.6a44.8 44.8 0 1 0 0-89.6 44.8 44.8 0 0 0 0 89.6z m179.2 0a44.8 44.8 0 1 0 0-89.6 44.8 44.8 0 0 0 0 89.6z m179.2 0a44.8 44.8 0 1 0 0-89.6 44.8 44.8 0 0 0 0 89.6zM256 208v32a16 16 0 0 1-16 16H160v512h80a16 16 0 0 1 16 16v32a16 16 0 0 1-16 16H160a64 64 0 0 1-64-64V256a64 64 0 0 1 64-64h80a16 16 0 0 1 16 16z m512 0v32c0 8.832 7.168 16 16 16h80v512h-80a16 16 0 0 0-16 16v32c0 8.832 7.168 16 16 16h80a64 64 0 0 0 64-64V256a64 64 0 0 0-64-64h-80a16 16 0 0 0-16 16z" fill="#f16506" p-id="5233" data-spm-anchor-id="a313x.search_index.0.i13.4ace3a81ITMh28" class="selected"></path></svg>