<?xml version="1.0" standalone="no"?><!DOCTYPE svg PUBLIC "-//W3C//DTD SVG 1.1//EN" "http://www.w3.org/Graphics/SVG/1.1/DTD/svg11.dtd"><svg t="1753666896866" class="icon" viewBox="0 0 1024 1024" version="1.1" xmlns="http://www.w3.org/2000/svg" p-id="28511" xmlns:xlink="http://www.w3.org/1999/xlink" width="32" height="32"><path d="M0 0m204.8 0l614.4 0q204.8 0 204.8 204.8l0 614.4q0 204.8-204.8 204.8l-614.4 0q-204.8 0-204.8-204.8l0-614.4q0-204.8 204.8-204.8Z" fill="#0076F6" p-id="28512"></path><path d="M512 192a64 64 0 0 1 21.3504 124.416v24.9344h192c23.552 0 42.6496 19.0976 42.6496 42.6496V768c0 23.552-19.0976 42.6496-42.6496 42.6496H298.6496A42.6496 42.6496 0 0 1 256 768V384c0-23.552 19.0976-42.6496 42.6496-42.6496h192v-25.0368a64 64 0 0 1-42.3424-54.1696L448 256c0-35.328 28.672-64 64-64zM406.784 438.784c-1.6896 21.8624 10.9056 57.6 17.3568 65.536q6.4 8.0896 103.424 40.8064-18.6368-4.1472-39.5264-9.0624l-14.08-3.328a673.28 673.28 0 0 1-39.0144-10.0352q-18.0224-5.6832-12.288 6.4c3.6864 22.2208 21.0944 47.36 34.7648 49.7152 6.8096 1.1776 24.6784 1.536 40.8576 1.6384h11.52q10.9056 0 18.9952-0.2048l-9.9328 1.3312-14.336 2.0992-5.9904 0.8704c-13.824 2.0992-31.4368 4.5056-35.9936 6.4q-10.752 4.5568 7.7824 22.528 27.4432 27.5456 42.0352 18.1248c8.1408-2.8672 15.2576-5.1712 21.5552-7.0144l6.0928-1.6896-9.5232 43.8784h27.4432l-15.104 66.4064 66.56-97.5872h-34.816l7.168-13.8752c0.1024 0.256 21.8624-38.2976 32.4096-61.44l1.9456-4.5056c1.4848-3.328 2.56-6.4 3.3792-9.6256 5.5296-25.6-37.12-35.6864-86.1184-55.5008-40.5504-16.2816-96.512-43.8272-114.7904-52.8896l-4.4544-2.2016-1.536-0.768q-5.12-1.536-5.7856 3.9936zM235.008 512v149.3504c-35.328 0-64-28.672-64-64v-21.3504c0-35.328 28.672-64 64-64z m554.0864 0c35.328 0 64 28.672 64 64v21.3504a64 64 0 0 1-57.856 63.6928l-6.144 0.3072V512z" fill="#FFFFFF" p-id="28513"></path></svg>