<?xml version="1.0" standalone="no"?><!DOCTYPE svg PUBLIC "-//W3C//DTD SVG 1.1//EN" "http://www.w3.org/Graphics/SVG/1.1/DTD/svg11.dtd"><svg t="1749562907882" class="icon" viewBox="0 0 1024 1024" version="1.1" xmlns="http://www.w3.org/2000/svg" p-id="4211" xmlns:xlink="http://www.w3.org/1999/xlink" width="32" height="32"><path d="M768 597.333333h-85.333333V426.666667h85.333333c94.250667 0 170.666667-76.416 170.666667-170.666667S862.250667 85.333333 768 85.333333c-94.261333 0-170.666667 76.416-170.666667 170.666667v85.333333H426.666667v-85.333333c0-94.250667-76.416-170.666667-170.666667-170.666667S85.333333 161.749333 85.333333 256s76.416 170.666667 170.666667 170.666667h85.333333v170.666666h-85.333333c-94.250667 0-170.666667 76.416-170.666667 170.666667s76.416 170.666667 170.666667 170.666667c94.261333 0 170.666667-76.416 170.666667-170.666667v-85.333333h170.666666v85.12l-0.010666 0.213333c0 94.250667 76.416 170.666667 170.666666 170.666667s170.666667-76.416 170.666667-170.666667S862.250667 597.354667 768 597.333333z m0-426.666666a85.333333 85.333333 0 0 1 0 170.666666h-85.333333v-85.333333a85.333333 85.333333 0 0 1 85.333333-85.333333z m-597.333333 85.333333a85.333333 85.333333 0 0 1 170.666666 0v85.333333h-85.333333c-47.125333 0-85.333333-38.218667-85.333333-85.333333z m85.333333 597.333333a85.333333 85.333333 0 0 1 0-170.666666h85.333333v85.333333a85.333333 85.333333 0 0 1-85.333333 85.333333z m170.666667-256V426.666667h170.666666v170.666666H426.666667z m341.333333 256a85.333333 85.333333 0 0 1-85.333333-85.333333v-85.333333h85.322666A85.333333 85.333333 0 0 1 768 853.333333z" p-id="4212" fill="#d4237a"></path></svg>