<?xml version="1.0" standalone="no"?><!DOCTYPE svg PUBLIC "-//W3C//DTD SVG 1.1//EN" "http://www.w3.org/Graphics/SVG/1.1/DTD/svg11.dtd"><svg t="1753667272645" class="icon" viewBox="0 0 1024 1024" version="1.1" xmlns="http://www.w3.org/2000/svg" p-id="37342" xmlns:xlink="http://www.w3.org/1999/xlink" width="32" height="32"><path d="M176.725333 721.152c-43.264 0-74.069333 27.221333-80.298666 70.997333h156.501333c-2.133333-44.288-31.488-70.997333-76.202667-70.997333z" fill="#17cbfe" p-id="37343"></path><path d="M989.866667 34.133333a116.48 116.48 0 0 0-82.432-34.133333H116.565333A116.48 116.48 0 0 0 0 116.565333v790.954667A116.650667 116.650667 0 0 0 116.565333 1024h790.954667a116.650667 116.650667 0 0 0 116.565333-116.565333V116.565333A116.906667 116.906667 0 0 0 989.866667 34.133333zM79.616 55.125333c25.770667 0 45.482667 19.712 45.482667 46.933334 0 26.453333-19.712 46.165333-45.482667 46.165333a44.714667 44.714667 0 0 1-45.482667-46.08C34.133333 74.837333 53.845333 55.125333 79.616 55.125333z m38.741333 150.272v361.728H40.874667V205.397333h77.482666z m186.026667 630.016H97.365333c9.301333 42.154667 41.728 68.437333 84.906667 68.437334 29.952 0 57.173333-11.349333 77.312-31.829334l31.402667 33.365334c-26.709333 29.354667-65.877333 46.336-113.237334 46.336-84.394667 0-140.032-56.149333-140.032-138.496 0-82.858667 57.173333-139.008 138.496-139.52 96.256 0.085333 135.338667 62.890667 128.170667 161.706666z m22.186667-268.288h-77.482667V277.504h-47.616v-58.453333h47.616v-35.328c0-84.394667 61.866667-124.416 124.416-124.416 29.269333 0 58.453333 8.192 81.578667 25.173333l-29.952 59.818667a86.784 86.784 0 0 0-49.578667-17.066667c-26.453333 0-48.896 14.933333-48.896 48.896v42.837333h94.549333v58.453334H326.570667v289.706666z m101.546666 382.549334h-59.221333V567.722667h59.221333v381.952z m23.04-616.362667h167.168v53.674667H451.157333v-53.674667z m144.213334 618.410667c-40.192 0-82.944-13.397333-110.165334-38.144l21.162667-42.154667c23.637333 21.077333 61.781333 33.962667 91.648 33.962667 25.258667 0 44.8-8.704 44.8-29.354667 0-56.064-144.128-24.746667-143.616-123.562667 0-55.552 48.384-79.274667 100.864-79.274666 34.56 0 71.082667 10.325333 95.744 27.818666l-21.589333 43.776c-24.234667-14.933333-54.613333-24.234667-78.762667-24.234666-23.125333 0-40.192 7.765333-40.192 27.306666 0 50.432 145.664 23.125333 145.152 122.453334 0 56.234667-49.92 81.408-105.045333 81.408z m405.845333-116.309334H794.197333c9.301333 42.154667 41.728 68.437333 84.906667 68.437334 29.952 0 57.173333-11.349333 77.312-31.829334l31.317333 33.450667c-26.709333 29.354667-65.877333 46.336-113.237333 46.336-84.394667 0-139.946667-56.149333-139.946667-138.496 0-82.858667 57.173333-139.008 138.496-139.52 96.170667 0 135.338667 62.805333 128.170667 161.621333z" fill="#17cbfe" p-id="37344"></path><path d="M873.557333 721.152c-43.264 0-74.069333 27.221333-80.298666 70.997333h156.501333c-2.133333-44.288-31.488-70.997333-76.202667-70.997333z" fill="#17cbfe" p-id="37345"></path></svg>