<?xml version="1.0" standalone="no"?><!DOCTYPE svg PUBLIC "-//W3C//DTD SVG 1.1//EN" "http://www.w3.org/Graphics/SVG/1.1/DTD/svg11.dtd"><svg t="1753680170649" class="icon" viewBox="0 0 1024 1024" version="1.1" xmlns="http://www.w3.org/2000/svg" p-id="60934" xmlns:xlink="http://www.w3.org/1999/xlink" width="32" height="32"><path d="M688.64 747.52H325.12c-66.56 0-117.76-17.92-145.92-84.48H122.88c33.28 84.48 107.52 135.68 204.8 135.68H691.2c94.72 0 171.52-51.2 204.8-135.68h-56.32c-33.28 69.12-84.48 84.48-151.04 84.48zM325.12 276.48h363.52c66.56 0 117.76 17.92 145.92 84.48h56.32c-33.28-84.48-107.52-135.68-204.8-135.68H325.12c-94.72 0-171.52 51.2-204.8 135.68H179.2c28.16-69.12 81.92-84.48 145.92-84.48z m117.76 266.24h66.56l-35.84-79.36-64 143.36h-30.72l79.36-171.52c2.56-7.68 10.24-10.24 15.36-10.24 5.12 0 12.8 5.12 15.36 10.24l79.36 171.52H537.6l-12.8-30.72h-69.12l-12.8-33.28z m309.76 33.28v-148.48h-25.6v163.84c0 5.12 2.56 7.68 2.56 12.8 2.56 2.56 5.12 5.12 10.24 5.12h115.2l15.36-30.72-117.76-2.56zM332.8 547.84c25.6 0 43.52-28.16 43.52-61.44s-17.92-58.88-43.52-58.88H222.72v181.76h25.6V460.8H332.8c5.12 0 10.24 2.56 15.36 7.68 5.12 5.12 5.12 12.8 5.12 20.48 0 7.68-2.56 15.36-5.12 20.48-5.12 5.12-10.24 7.68-15.36 7.68h-71.68l76.8 89.6h35.84l-51.2-58.88h10.24zM66.56 606.72c-35.84 0-66.56-40.96-66.56-89.6s30.72-89.6 66.56-89.6h76.8c35.84 0 66.56 40.96 66.56 89.6 0 23.04-7.68 46.08-20.48 64s-28.16 25.6-46.08 25.6h-76.8z m74.24-30.72c10.24 0 23.04-5.12 30.72-17.92 7.68-10.24 12.8-25.6 12.8-40.96S179.2 486.4 171.52 476.16c-7.68-10.24-17.92-17.92-30.72-17.92H66.56c-23.04 0-40.96 25.6-40.96 58.88 0 30.72 17.92 58.88 40.96 58.88h74.24z m481.28 30.72c-23.04 0-46.08-17.92-58.88-46.08-12.8-28.16-12.8-64 0-92.16s33.28-46.08 58.88-46.08h92.16l-15.36 30.72h-74.24c-15.36 0-30.72 10.24-38.4 28.16-7.68 17.92-7.68 40.96 0 58.88s23.04 28.16 38.4 28.16H716.8l-15.36 30.72h-79.36v7.68z m309.76-30.72c-17.92 0-35.84-17.92-40.96-43.52H998.4l15.36-30.72h-122.88c5.12-25.6 23.04-43.52 40.96-43.52h74.24l15.36-30.72h-92.16c-35.84 0-64 40.96-64 89.6s28.16 89.6 64 89.6h79.36l15.36-30.72h-92.16z" fill="#D81E06" p-id="60935"></path></svg>