<?xml version="1.0" standalone="no"?><!DOCTYPE svg PUBLIC "-//W3C//DTD SVG 1.1//EN" "http://www.w3.org/Graphics/SVG/1.1/DTD/svg11.dtd"><svg t="1752393629384" class="icon" viewBox="0 0 1024 1024" version="1.1" xmlns="http://www.w3.org/2000/svg" p-id="10602" xmlns:xlink="http://www.w3.org/1999/xlink" width="16" height="16"><path d="M853.333333 85.333333a42.666667 42.666667 0 0 1 42.666667 42.666667v298.666667h-85.333333V170.666667H213.333333v682.666666h597.333334v-85.333333h85.333333v128a42.666667 42.666667 0 0 1-42.666667 42.666667H170.666667a42.666667 42.666667 0 0 1-42.666667-42.666667V128a42.666667 42.666667 0 0 1 42.666667-42.666667h682.666666z m-341.333333 554.666667v85.333333H298.666667v-85.333333h213.333333z m298.666667-149.333333l128 106.666666-128 106.666667V640h-213.333334v-85.333333h213.333334v-64z m-298.666667-21.333334v85.333334H298.666667v-85.333334h213.333333z m213.333333-170.666666v85.333333H298.666667V298.666667h426.666666z" fill="#13227a" p-id="10603"></path></svg>