<svg viewBox="0 0 1024 1024" version="1.1" xmlns="http://www.w3.org/2000/svg" width="24" height="24">
  <path d="M512 64C264.6 64 64 264.6 64 512s200.6 448 448 448 448-200.6 448-448S759.4 64 512 64z m0 820c-205.4 0-372-166.6-372-372s166.6-372 372-372 372 166.6 372 372-166.6 372-372 372z" fill="#1296db"/>
  <path d="M464 336c0-4.4 3.6-8 8-8h80c4.4 0 8 3.6 8 8v48c0 4.4-3.6 8-8 8h-80c-4.4 0-8-3.6-8-8v-48z m0 112c0-4.4 3.6-8 8-8h80c4.4 0 8 3.6 8 8v48c0 4.4-3.6 8-8 8h-80c-4.4 0-8-3.6-8-8v-48z m0 112c0-4.4 3.6-8 8-8h80c4.4 0 8 3.6 8 8v48c0 4.4-3.6 8-8 8h-80c-4.4 0-8-3.6-8-8v-48z" fill="#1296db"/>
  <path d="M320 256h384c17.7 0 32 14.3 32 32v448c0 17.7-14.3 32-32 32H320c-17.7 0-32-14.3-32-32V288c0-17.7 14.3-32 32-32z m32 64v384h320V320H352z" fill="#1296db"/>
  <path d="M400 640h224v48H400z m0-80h224v48H400z m0-80h224v48H400z" fill="#ffffff"/>
</svg>