<?xml version="1.0" standalone="no"?><!DOCTYPE svg PUBLIC "-//W3C//DTD SVG 1.1//EN" "http://www.w3.org/Graphics/SVG/1.1/DTD/svg11.dtd"><svg t="1753667721436" class="icon" viewBox="0 0 1024 1024" version="1.1" xmlns="http://www.w3.org/2000/svg" p-id="53951" xmlns:xlink="http://www.w3.org/1999/xlink" width="32" height="32"><path d="M128 213.333333V128h85.333333v85.333333H128z m170.666667 85.333334H213.333333V213.333333h85.333334v85.333334z m85.333333 85.333333H298.666667V298.666667h85.333333v85.333333z m85.333333 85.333333H384V384h85.333333v85.333333z m85.333334 0h-85.333334v85.333334h85.333334v85.333333h85.333333v85.333333h85.333333v85.333334h-85.333333v85.333333h256v-256h-85.333333v85.333333h-85.333334v-85.333333h-85.333333v-85.333333h-85.333333v-85.333334z m85.333333-85.333333v85.333333h-85.333333V384h85.333333z m85.333333-85.333333v85.333333h-85.333333V298.666667h85.333333z m0-85.333334v85.333334h85.333334v85.333333h85.333333V128h-256v85.333333h85.333333zM213.333333 810.666667v-85.333334h85.333334v85.333334H213.333333z m0 0v85.333333H128v-85.333333h85.333333z m85.333334-85.333334v-85.333333h85.333333v85.333333H298.666667z" p-id="53952" fill="#d4237a"></path></svg>