<?xml version="1.0" standalone="no"?><!DOCTYPE svg PUBLIC "-//W3C//DTD SVG 1.1//EN" "http://www.w3.org/Graphics/SVG/1.1/DTD/svg11.dtd"><svg t="1753940641582" class="icon" viewBox="0 0 1024 1024" version="1.1" xmlns="http://www.w3.org/2000/svg" p-id="7185" width="16" height="16" xmlns:xlink="http://www.w3.org/1999/xlink"><path d="M0 0m186.181818 0l651.636364 0q186.181818 0 186.181818 186.181818l0 651.636364q0 186.181818-186.181818 186.181818l-651.636364 0q-186.181818 0-186.181818-186.181818l0-651.636364q0-186.181818 186.181818-186.181818Z" fill="#4575F8" p-id="7186"></path><path d="M795.927273 685.149091a23.272727 23.272727 0 1 1 35.84 29.696 407.877818 407.877818 0 0 1-314.740364 148.014545 407.877818 407.877818 0 0 1-314.740364-148.014545l17.92-14.801455 17.92-14.894545a361.332364 361.332364 0 0 0 278.900364 131.165091A361.332364 361.332364 0 0 0 795.927273 685.149091z m-590.568728-3.072a23.272727 23.272727 0 0 1 32.768 3.072l-35.84 29.696a23.272727 23.272727 0 0 1 3.072-32.768z m32.768-343.226182a23.272727 23.272727 0 1 1-35.84-29.696l35.84 29.696z m278.900364-177.710545a407.877818 407.877818 0 0 1 314.740364 148.014545l2.606545 3.909818a23.272727 23.272727 0 0 1-38.446545 25.786182l-12.846546-14.708364a361.099636 361.099636 0 0 0-266.053818-116.456727A361.332364 361.332364 0 0 0 238.126545 338.850909l-17.92-14.894545-17.92-14.801455a407.877818 407.877818 0 0 1 314.740364-148.014545z" fill="#FFFFFF" p-id="7187"></path><path d="M612.770909 695.389091a23.272727 23.272727 0 0 1 44.078546 14.941091c-14.661818 43.426909-33.512727 80.523636-56.040728 107.240727-22.434909 26.624-50.734545 45.288727-83.781818 45.288727s-61.300364-18.618182-83.781818-45.288727c-19.688727-23.365818-36.584727-54.690909-50.362182-91.275636l-5.678545-15.965091-1.024-4.561455a23.272727 23.272727 0 0 1 43.194181-14.661818l1.95491 4.328727 5.21309 14.615273c12.474182 33.186909 26.996364 59.392 42.309819 77.498182 17.547636 20.805818 33.978182 28.765091 48.174545 28.765091 14.196364 0 30.626909-7.912727 48.174546-28.765091 17.501091-20.712727 33.978182-51.944727 47.569454-92.16zM517.026909 161.186909c33.047273 0 61.346909 18.618182 83.781818 45.288727 19.735273 23.365818 36.584727 54.737455 50.315637 91.275637l5.725091 15.965091 1.070545 4.561454a23.272727 23.272727 0 0 1-43.194182 14.661818l-1.954909-4.328727-5.213091-14.615273c-12.520727-33.186909-27.042909-59.392-42.356363-77.498181-17.547636-20.805818-33.978182-28.765091-48.174546-28.765091-14.196364 0-30.626909 7.912727-48.174545 28.765091-15.313455 18.152727-29.789091 44.311273-42.356364 77.498181l-5.166545 14.615273a23.272727 23.272727 0 1 1-44.125091-14.894545l5.678545-15.965091c13.777455-36.584727 30.673455-67.909818 50.362182-91.229091 22.481455-26.670545 50.734545-45.335273 83.781818-45.335273zM886.225455 493.381818v-36.770909h-75.124364v36.770909h75.170909z m0-92.672c15.173818 0 28.299636 5.538909 39.377454 16.570182 11.077818 11.077818 16.616727 24.203636 16.616727 39.377455v36.677818c0 15.127273-5.585455 28.253091-16.616727 39.330909a53.527273 53.527273 0 0 1-39.330909 16.616727h-75.170909v75.170909h-55.947636V400.756364h131.118545zM550.632727 456.610909V400.709818h167.796364V456.610909h-55.901091v167.796364h-55.947636V456.657455H550.632727z m-206.289454 0V400.709818h167.796363V456.610909H456.192v167.796364H400.290909V456.657455H344.343273z m-92.625455 19.223273V400.756364h55.901091v223.744H251.717818v-92.625455H176.500364v92.625455H120.599273V400.756364h55.901091v75.170909h75.217454z" fill="#FFFFFF" p-id="7188"></path></svg>