<?xml version="1.0" standalone="no"?><!DOCTYPE svg PUBLIC "-//W3C//DTD SVG 1.1//EN" "http://www.w3.org/Graphics/SVG/1.1/DTD/svg11.dtd"><svg t="1753667321698" class="icon" viewBox="0 0 1026 1024" version="1.1" xmlns="http://www.w3.org/2000/svg" p-id="39327" xmlns:xlink="http://www.w3.org/1999/xlink" width="32.0625" height="32"><path d="M788.21661 628.026112a31.9997 31.9997 0 0 1 3.711966 40.831617l-3.711966 4.479958-33.727683 30.655713H991.9907a31.9997 31.9997 0 0 1 5.759946 63.487405L991.9907 767.9928h-321.468986a32.191698 32.191698 0 0 1-2.751974-0.255998L671.9937 767.9928a32.127699 32.127699 0 0 1-22.655788-9.343912l-0.895991-1.023991a32.191698 32.191698 0 0 1-1.855983-2.175979l2.751974 3.19997A32.127699 32.127699 0 0 1 639.994 735.9931v-0.639994c0-1.407987 0.127999-2.751974 0.319997-4.095962L639.994 735.9931a32.127699 32.127699 0 0 1 5.695947-18.17583l0.895991-1.279988a32.191698 32.191698 0 0 1 1.855983-2.175979l0.895991-1.023991 93.631123-85.3112a31.9997 31.9997 0 0 1 45.247575 0zM875.76779 971.958888a31.9997 31.9997 0 0 1-3.711966-40.831617l3.711966-4.479958 33.727683-30.655713H671.9937a31.9997 31.9997 0 0 1-5.759946-63.487405L671.9937 831.9922h321.468986l2.751974 0.255998L991.9907 831.9922a32.127699 32.127699 0 0 1 22.655788 9.343912l0.895991 1.023991c0.639994 0.639994 1.279988 1.407987 1.855983 2.175979l-2.751974-3.19997A32.127699 32.127699 0 0 1 1023.9904 863.9919v0.639994a32.191698 32.191698 0 0 1-0.319997 4.095962L1023.9904 863.9919a32.127699 32.127699 0 0 1-5.695947 18.17583l-0.895991 1.279988a32.191698 32.191698 0 0 1-1.855983 2.175979l-0.895991 1.023991-93.631123 85.3112a31.9997 31.9997 0 0 1-45.247575 0z" fill="#00B76D" p-id="39328"></path><path d="M511.9952 0a511.9952 511.9952 0 0 1 508.027237 576.058599h-64.575394a447.9958 447.9958 0 1 0-379.388444 379.388444v64.575394A511.9952 511.9952 0 1 1 511.9952 0z" fill="#00B76D" p-id="39329"></path><path d="M447.9958 319.997m31.9997 0l0 0q31.9997 0 31.9997 31.9997l0 191.9982q0 31.9997-31.9997 31.9997l0 0q-31.9997 0-31.9997-31.9997l0-191.9982q0-31.9997 31.9997-31.9997Z" fill="#00B76D" p-id="39330"></path><path d="M447.9958 511.9952m31.9997 0l191.9982 0q31.9997 0 31.9997 31.9997l0 0q0 31.9997-31.9997 31.9997l-191.9982 0q-31.9997 0-31.9997-31.9997l0 0q0-31.9997 31.9997-31.9997Z" fill="#00B76D" p-id="39331"></path></svg>