<?xml version="1.0" standalone="no"?><!DOCTYPE svg PUBLIC "-//W3C//DTD SVG 1.1//EN" "http://www.w3.org/Graphics/SVG/1.1/DTD/svg11.dtd"><svg t="1750582508175" class="icon" viewBox="0 0 1024 1024" version="1.1" xmlns="http://www.w3.org/2000/svg" p-id="52341" xmlns:xlink="http://www.w3.org/1999/xlink" width="32" height="32"><path d="M756.736 256.9216c-38.2976 6.5024-70.912 35.84-83.6096 75.1104-4.9152 15.0528-5.7856 21.4016-5.632 39.5264 0 13.9264 0.4096 19.1488 2.4064 26.9312 5.4272 21.8112 14.336 38.8096 28.0576 53.504 10.24 11.008 19.2512 17.7152 31.6928 23.7056a99.6864 99.6864 0 0 0 107.008-12.3392 114.688 114.688 0 0 0 42.3424-85.504l0.6656-14.08h-50.8928c-47.616 0-50.688 0.1024-50.5856 1.8944 0 1.1264 2.048 9.216 4.7616 18.1248l4.6592 16.128 21.9136 0.3584c12.032 0.1024 21.9648 0.512 21.9648 1.024 0 2.304-8.9088 15.7696-14.2848 21.6576-12.6464 13.6704-27.0336 20.2752-44.1344 20.2752-42.0864-0.256-73.0112-46.7456-61.2352-92.2624 6.4512-25.2416 26.2656-45.9776 49.1008-51.3024 24.6784-5.7856 51.2 6.8096 65.4336 31.1808a27.2896 27.2896 0 0 0 5.2224 7.3216c0.4096 0 9.3184-3.328 19.8144-7.3216l18.944-7.4752-1.7408-3.9936a125.0816 125.0816 0 0 0-22.1184-31.8464 102.8096 102.8096 0 0 0-56.6272-30.464 137.728 137.728 0 0 0-33.1776-0.1024z m-600.6784 43.776v43.7248l-26.8288 12.6464c-14.848 7.0144-26.8288 13.312-26.8288 13.9264 0 0.5632 12.032 6.912 26.8288 13.9264l26.8288 12.6976v87.4496h50.0736l0.2048-31.744 0.3072-31.5904 58.4192 27.8528c32.1536 15.36 62.1056 29.5936 66.56 31.5904l8.0384 3.7888v-50.5344L273.408 402.8416c-36.4544-17.408-66.048-31.744-65.8432-31.9488 0.2048-0.2048 29.9008-14.592 65.9968-31.9488l65.536-31.488 0.3072-25.2416a446.0544 446.0544 0 0 0-0.1024-25.2416c-0.2048 0-30.1568 14.2336-66.4064 31.5904l-66.2528 31.5904-0.3072-31.5904-0.2048-31.5904h-50.0736v43.7248z m216.9856 70.2976v114.0736h50.0736V256.9216h-50.0736v114.0736z m83.456 0v114.0736h45.568v-173.056l10.1376 19.456a22822.656 22822.656 0 0 0 73.216 139.8784l7.3728 13.7216h58.368V256.9216h-45.568v165.2736l-43.7248-82.3296-43.7248-82.3808-30.8224-0.3072-30.8224-0.256v114.0736z m-125.5424 394.5984c-0.2048 0.6656 9.7792 0.8704 24.9344 0.768l25.344-0.3584 22.6304-47.2576c12.288-26.0608 26.5728-55.7568 31.488-66.0992l9.0112-18.7904 31.7952 66.4064 31.9488 66.304h50.6368l-9.216-19.2512-56.8832-119.04c-26.112-54.8864-47.9744-99.84-48.2816-99.84-0.3584 0-25.9584 53.248-56.832 118.0672-30.976 65.024-56.4736 118.528-56.576 119.0912z m290.7648-228.2496c-33.0752 5.12-55.552 23.808-61.184 50.688-3.2256 15.104-1.4848 30.976 4.5568 43.008 6.144 12.1344 20.6848 23.1424 40.96 31.0784 4.864 1.8944 18.1248 5.888 29.5936 8.7552 23.2448 6.144 30.3616 8.704 38.144 13.568 16.0256 10.24 15.2576 34.6112-1.3312 43.2128-10.3424 5.2224-33.4848 5.888-45.824 1.2288a37.2224 37.2224 0 0 1-23.6032-24.3712l-1.2288-4.7104h-25.3952c-20.48 0-25.344 0.3584-25.344 1.4848 0 4.5568 5.0176 19.7632 9.0112 27.5968 10.752 20.6848 31.744 34.4576 59.648 39.3728 20.5824 3.584 51.6096 1.536 69.5296-4.608 33.7408-11.4176 51.968-40.5504 46.592-74.5984-4.864-31.9488-26.4704-48.3328-81.2032-62.1056-24.2688-6.0416-33.5872-9.7792-39.2704-15.8208a20.6336 20.6336 0 0 1-3.2256-23.1424c4.6592-10.3424 14.7968-14.4384 33.1776-13.6704 9.8816 0.4096 12.288 1.024 17.7664 3.7888 7.5776 3.8912 12.8 10.24 15.4624 18.7904l2.048 6.144h49.6128v-3.1232c0-5.4784-3.2256-16.128-7.5776-24.7296-8.3456-16.7936-26.112-29.7984-48.64-35.6864-10.24-2.7136-40.704-3.8912-52.2752-2.1504z m-465.664 115.712v113.664l62.0544-0.3584c60.7744-0.4608 62.1056-0.4608 70.3488-3.0208 25.7024-7.7824 43.7248-25.7024 48.4864-47.8208a64.1536 64.1536 0 0 0-16.896-59.5456l-6.912-6.8096 3.7888-4.3008c4.6592-5.376 8.9088-13.9264 11.008-21.9136 2.1504-8.0384 2.1504-26.624 0-34.9696-5.9904-23.04-26.4704-40.6016-53.9648-46.1824-9.5744-1.9968-15.4624-2.2016-64.2048-2.2016h-53.76v113.5104z m122.368-46.4896a27.136 27.136 0 0 1-10.5472 21.1456c-7.5776 5.2224-15.2576 6.4512-39.7312 6.4512h-22.016v-57.856h18.1248c9.8816 0 21.504 0.512 25.6 1.1264 19.3536 2.7648 28.5696 12.2368 28.5696 29.184z m-9.8816 68.096c7.424 2.7648 13.824 8.6016 16.2304 14.8992a32.768 32.768 0 0 1-0.6656 23.9616c-3.072 6.4512-7.1168 9.8816-15.36 13.1072-5.9904 2.3552-8.5504 2.56-34.5088 3.0208l-28.16 0.4096v-58.2656l28.7232 0.4096c23.6032 0.4608 29.4912 0.9216 33.7408 2.4576z m485.0176-21.5552v113.4592H921.6v-41.1648h-119.04v-144.64H921.6v-41.1648h-168.0384v113.5104z m60.1088 0.512v20.5824H921.6v-41.1648h-107.9296v20.5824z m-377.4464 51.0976c-5.4784 1.4336-7.0144 2.3552-12.9024 7.7824a27.648 27.648 0 0 0-8.8064 18.3808 30.0544 30.0544 0 0 0 38.8608 31.8976c21.248-6.144 28.3648-32.7168 13.312-49.8176-6.5536-7.3728-20.224-11.1616-30.464-8.2432z" fill="#E50022" p-id="52342"></path></svg>