<?xml version="1.0" standalone="no"?><!DOCTYPE svg PUBLIC "-//W3C//DTD SVG 1.1//EN" "http://www.w3.org/Graphics/SVG/1.1/DTD/svg11.dtd"><svg t="1755668158072" class="icon" viewBox="0 0 1024 1024" version="1.1" xmlns="http://www.w3.org/2000/svg" p-id="1470" xmlns:xlink="http://www.w3.org/1999/xlink" width="200" height="200"><path d="M236.117333 269.969067a340.599467 340.599467 0 0 1 482.875734 0c133.572267 133.7856 133.572267 350.472533 0 484.258133a340.864 340.864 0 0 1-241.4848 100.155733 340.753067 340.753067 0 0 1-241.3824-100.369066L18.176 535.3216a33.092267 33.092267 0 0 1 0-46.728533l217.941333-218.624z m431.1552 64.247466a250.257067 250.257067 0 0 0-354.730666 0L152.490667 494.8224a24.439467 24.439467 0 0 0 0 34.338133l160.341333 160.8192a250.282667 250.282667 0 0 0 354.722133 0c97.954133-98.389333 97.860267-257.4848-0.2048-355.7632h-0.0768z m-175.351466 9.130667c93.1072 0 168.635733 76.6464 168.635733 171.136 0 94.5664-75.451733 171.204267-168.635733 171.204267s-168.704-76.629333-168.704-171.204267c0-94.4896 75.52-171.127467 168.704-171.127467z m513.9456 147.882667l-97.194667-97.621334a8.106667 8.106667 0 0 0-13.704533 7.620267 517.034667 517.034667 0 0 1 0 226.5856c-1.800533 8.098133 8.029867 13.354667 13.704533 7.611733l97.194667-97.536a33.160533 33.160533 0 0 0 0-46.6688z" fill="#4FC4F9" p-id="1471"></path></svg>